<svg width="48" height="48" viewBox="0 0 48 48" fill="none" xmlns="http://www.w3.org/2000/svg">
<path fill-rule="evenodd" clip-rule="evenodd" d="M41.9999 7.5C41.9999 7.10218 41.8419 6.72064 41.5606 6.43934C41.2793 6.15804 40.8978 6 40.4999 6H22.4999C22.1021 6 21.7206 6.15804 21.4393 6.43934C21.158 6.72064 20.9999 7.10218 20.9999 7.5C20.9999 7.89782 21.158 8.27936 21.4393 8.56066C21.7206 8.84196 22.1021 9 22.4999 9H36.8789L6.43794 39.438C6.29848 39.5775 6.18785 39.743 6.11237 39.9252C6.03689 40.1075 5.99805 40.3028 5.99805 40.5C5.99805 40.6972 6.03689 40.8925 6.11237 41.0747C6.18785 41.257 6.29848 41.4225 6.43794 41.562C6.57741 41.7015 6.74297 41.8121 6.92519 41.8876C7.10741 41.963 7.30271 42.0019 7.49994 42.0019C7.69717 42.0019 7.89247 41.963 8.07469 41.8876C8.25691 41.8121 8.42248 41.7015 8.56194 41.562L38.9999 11.121V25.5C38.9999 25.8978 39.158 26.2794 39.4393 26.5607C39.7206 26.842 40.1021 27 40.4999 27C40.8978 27 41.2793 26.842 41.5606 26.5607C41.8419 26.2794 41.9999 25.8978 41.9999 25.5V7.5Z" fill="white"/>
</svg>
